<mxfile host="Electron" agent="Mozilla/5.0 (Windows NT 10.0; Win64; x64) AppleWebKit/537.36 (KHTML, like Gecko) draw.io/27.0.5 Chrome/134.0.6998.205 Electron/35.3.0 Safari/537.36" version="27.0.5">
  <diagram name="Page-1" id="x5WT8G1wJpedPxUg7Uyk">
    <mxGraphModel dx="1966" dy="944" grid="1" gridSize="10" guides="1" tooltips="1" connect="1" arrows="1" fold="1" page="1" pageScale="1" pageWidth="850" pageHeight="1100" math="1" shadow="0">
      <root>
        <mxCell id="0" />
        <mxCell id="1" parent="0" />
        <mxCell id="9ofN6QEaD7aPlXG1aBYs-13" value="" style="ellipse;whiteSpace=wrap;html=1;fillColor=none;" vertex="1" parent="1">
          <mxGeometry x="-310" y="700" width="260" height="270" as="geometry" />
        </mxCell>
        <mxCell id="9ofN6QEaD7aPlXG1aBYs-1" value="" style="rounded=0;whiteSpace=wrap;html=1;fillColor=#60a917;fontColor=#ffffff;strokeColor=#2D7600;" vertex="1" parent="1">
          <mxGeometry x="170" y="260" width="120" height="60" as="geometry" />
        </mxCell>
        <mxCell id="9ofN6QEaD7aPlXG1aBYs-2" value="" style="rounded=0;whiteSpace=wrap;html=1;fillColor=#60a917;fontColor=#ffffff;strokeColor=#2D7600;" vertex="1" parent="1">
          <mxGeometry x="280" y="190" width="120" height="60" as="geometry" />
        </mxCell>
        <mxCell id="9ofN6QEaD7aPlXG1aBYs-3" value="" style="rounded=0;whiteSpace=wrap;html=1;fillColor=#60a917;fontColor=#ffffff;strokeColor=#2D7600;" vertex="1" parent="1">
          <mxGeometry x="60" y="190" width="120" height="60" as="geometry" />
        </mxCell>
        <mxCell id="9ofN6QEaD7aPlXG1aBYs-4" value="" style="rounded=0;whiteSpace=wrap;html=1;fillColor=#60a917;fontColor=#ffffff;strokeColor=#2D7600;" vertex="1" parent="1">
          <mxGeometry x="390" y="120" width="120" height="60" as="geometry" />
        </mxCell>
        <mxCell id="9ofN6QEaD7aPlXG1aBYs-5" value="" style="rounded=0;whiteSpace=wrap;html=1;fillColor=#60a917;fontColor=#ffffff;strokeColor=#2D7600;" vertex="1" parent="1">
          <mxGeometry x="-50" y="120" width="120" height="60" as="geometry" />
        </mxCell>
        <mxCell id="9ofN6QEaD7aPlXG1aBYs-6" value="3W" style="text;html=1;align=center;verticalAlign=middle;whiteSpace=wrap;rounded=0;" vertex="1" parent="1">
          <mxGeometry x="330" y="205" width="60" height="30" as="geometry" />
        </mxCell>
        <mxCell id="9ofN6QEaD7aPlXG1aBYs-7" value="W" style="text;html=1;align=center;verticalAlign=middle;whiteSpace=wrap;rounded=0;" vertex="1" parent="1">
          <mxGeometry x="230" y="275" width="60" height="30" as="geometry" />
        </mxCell>
        <mxCell id="9ofN6QEaD7aPlXG1aBYs-8" value="$$l\times W - 1$$" style="text;html=1;align=center;verticalAlign=middle;whiteSpace=wrap;rounded=0;" vertex="1" parent="1">
          <mxGeometry x="450" y="135" width="60" height="30" as="geometry" />
        </mxCell>
        <mxCell id="9ofN6QEaD7aPlXG1aBYs-9" value="" style="ellipse;whiteSpace=wrap;html=1;aspect=fixed;fillColor=#1ba1e2;fontColor=#ffffff;strokeColor=#006EAF;" vertex="1" parent="1">
          <mxGeometry x="-265" y="810" width="50" height="50" as="geometry" />
        </mxCell>
        <mxCell id="9ofN6QEaD7aPlXG1aBYs-10" value="" style="ellipse;whiteSpace=wrap;html=1;aspect=fixed;fillColor=#1ba1e2;fontColor=#ffffff;strokeColor=#006EAF;" vertex="1" parent="1">
          <mxGeometry x="-215" y="880" width="50" height="50" as="geometry" />
        </mxCell>
        <mxCell id="9ofN6QEaD7aPlXG1aBYs-11" value="" style="ellipse;whiteSpace=wrap;html=1;aspect=fixed;fillColor=#1ba1e2;fontColor=#ffffff;strokeColor=#006EAF;" vertex="1" parent="1">
          <mxGeometry x="-205" y="730" width="50" height="50" as="geometry" />
        </mxCell>
        <mxCell id="9ofN6QEaD7aPlXG1aBYs-12" value="" style="ellipse;whiteSpace=wrap;html=1;aspect=fixed;fillColor=#1ba1e2;fontColor=#ffffff;strokeColor=#006EAF;" vertex="1" parent="1">
          <mxGeometry x="-145" y="810" width="50" height="50" as="geometry" />
        </mxCell>
        <mxCell id="9ofN6QEaD7aPlXG1aBYs-14" value="" style="ellipse;whiteSpace=wrap;html=1;fillColor=none;" vertex="1" parent="1">
          <mxGeometry x="100" y="480" width="370" height="380" as="geometry" />
        </mxCell>
        <mxCell id="9ofN6QEaD7aPlXG1aBYs-15" value="" style="curved=1;endArrow=classic;html=1;rounded=0;exitX=0.637;exitY=0.983;exitDx=0;exitDy=0;exitPerimeter=0;entryX=0.557;entryY=0.999;entryDx=0;entryDy=0;entryPerimeter=0;" edge="1" parent="1" source="9ofN6QEaD7aPlXG1aBYs-13" target="9ofN6QEaD7aPlXG1aBYs-14">
          <mxGeometry width="50" height="50" relative="1" as="geometry">
            <mxPoint x="80" y="800" as="sourcePoint" />
            <mxPoint x="130" y="750" as="targetPoint" />
            <Array as="points">
              <mxPoint x="30" y="930" />
              <mxPoint x="170" y="910" />
            </Array>
          </mxGeometry>
        </mxCell>
        <mxCell id="9ofN6QEaD7aPlXG1aBYs-16" value="" style="curved=1;endArrow=classic;html=1;rounded=0;exitX=0.637;exitY=0.983;exitDx=0;exitDy=0;exitPerimeter=0;entryX=0.44;entryY=0.005;entryDx=0;entryDy=0;entryPerimeter=0;" edge="1" parent="1" target="9ofN6QEaD7aPlXG1aBYs-14">
          <mxGeometry width="50" height="50" relative="1" as="geometry">
            <mxPoint x="-215" y="705" as="sourcePoint" />
            <mxPoint x="235" y="600" as="targetPoint" />
            <Array as="points">
              <mxPoint x="-20" y="520" />
            </Array>
          </mxGeometry>
        </mxCell>
        <mxCell id="9ofN6QEaD7aPlXG1aBYs-17" value="" style="ellipse;whiteSpace=wrap;html=1;aspect=fixed;fillColor=#1ba1e2;fontColor=#ffffff;strokeColor=#006EAF;" vertex="1" parent="1">
          <mxGeometry x="150" y="640" width="50" height="50" as="geometry" />
        </mxCell>
        <mxCell id="9ofN6QEaD7aPlXG1aBYs-18" value="" style="ellipse;whiteSpace=wrap;html=1;aspect=fixed;fillColor=#1ba1e2;fontColor=#ffffff;strokeColor=#006EAF;" vertex="1" parent="1">
          <mxGeometry x="310" y="680" width="50" height="50" as="geometry" />
        </mxCell>
        <mxCell id="9ofN6QEaD7aPlXG1aBYs-19" value="" style="ellipse;whiteSpace=wrap;html=1;aspect=fixed;fillColor=#1ba1e2;fontColor=#ffffff;strokeColor=#006EAF;" vertex="1" parent="1">
          <mxGeometry x="250" y="530" width="50" height="50" as="geometry" />
        </mxCell>
        <mxCell id="9ofN6QEaD7aPlXG1aBYs-20" value="" style="ellipse;whiteSpace=wrap;html=1;aspect=fixed;fillColor=#1ba1e2;fontColor=#ffffff;strokeColor=#006EAF;" vertex="1" parent="1">
          <mxGeometry x="230" y="700" width="50" height="50" as="geometry" />
        </mxCell>
        <mxCell id="9ofN6QEaD7aPlXG1aBYs-21" value="&lt;font style=&quot;font-size: 28px;&quot;&gt;Convection&lt;/font&gt;" style="text;html=1;align=center;verticalAlign=middle;whiteSpace=wrap;rounded=0;" vertex="1" parent="1">
          <mxGeometry x="130" y="960" width="60" height="30" as="geometry" />
        </mxCell>
        <mxCell id="9ofN6QEaD7aPlXG1aBYs-22" value="&lt;font style=&quot;font-size: 28px;&quot;&gt;Diffusion&lt;/font&gt;" style="text;html=1;align=center;verticalAlign=middle;whiteSpace=wrap;rounded=0;" vertex="1" parent="1">
          <mxGeometry x="-120" y="910" width="60" height="30" as="geometry" />
        </mxCell>
        <mxCell id="9ofN6QEaD7aPlXG1aBYs-23" value="" style="endArrow=classic;startArrow=classic;html=1;rounded=0;" edge="1" parent="1">
          <mxGeometry width="50" height="50" relative="1" as="geometry">
            <mxPoint x="-130" y="840" as="sourcePoint" />
            <mxPoint x="-180" y="900" as="targetPoint" />
          </mxGeometry>
        </mxCell>
        <mxCell id="9ofN6QEaD7aPlXG1aBYs-25" value="&lt;font style=&quot;font-size: 28px;&quot;&gt;FF Layer&lt;/font&gt;" style="text;html=1;align=center;verticalAlign=middle;whiteSpace=wrap;rounded=0;" vertex="1" parent="1">
          <mxGeometry x="-145" y="500" width="150" height="30" as="geometry" />
        </mxCell>
        <mxCell id="9ofN6QEaD7aPlXG1aBYs-26" value="&lt;font style=&quot;font-size: 28px;&quot;&gt;Attention&lt;/font&gt;" style="text;html=1;align=center;verticalAlign=middle;whiteSpace=wrap;rounded=0;" vertex="1" parent="1">
          <mxGeometry x="-440" y="700" width="150" height="30" as="geometry" />
        </mxCell>
        <mxCell id="9ofN6QEaD7aPlXG1aBYs-27" value="&lt;font style=&quot;font-size: 28px;&quot;&gt;Embedding&lt;/font&gt;" style="text;html=1;align=center;verticalAlign=middle;whiteSpace=wrap;rounded=0;" vertex="1" parent="1">
          <mxGeometry x="-450" y="860" width="150" height="30" as="geometry" />
        </mxCell>
        <mxCell id="9ofN6QEaD7aPlXG1aBYs-28" value="&lt;font style=&quot;font-size: 28px;&quot;&gt;operates each point equally&lt;/font&gt;" style="text;html=1;align=center;verticalAlign=middle;whiteSpace=wrap;rounded=0;" vertex="1" parent="1">
          <mxGeometry x="-90" y="620" width="150" height="30" as="geometry" />
        </mxCell>
        <mxCell id="9ofN6QEaD7aPlXG1aBYs-29" value="&lt;span style=&quot;font-size: 28px;&quot;&gt;captures inter particle dynamics&lt;/span&gt;" style="text;html=1;align=center;verticalAlign=middle;whiteSpace=wrap;rounded=0;" vertex="1" parent="1">
          <mxGeometry x="-270" y="1010" width="240" height="30" as="geometry" />
        </mxCell>
        <mxCell id="9ofN6QEaD7aPlXG1aBYs-30" value="&lt;font style=&quot;font-size: 28px;&quot;&gt;latent representation&lt;/font&gt;" style="text;html=1;align=center;verticalAlign=middle;whiteSpace=wrap;rounded=0;" vertex="1" parent="1">
          <mxGeometry x="220" y="420" width="150" height="30" as="geometry" />
        </mxCell>
      </root>
    </mxGraphModel>
  </diagram>
</mxfile>
